<?xml version="1.0" encoding="UTF-8"?> <svg xmlns="http://www.w3.org/2000/svg" xmlns:xlink="http://www.w3.org/1999/xlink" id="Слой_1" data-name="Слой 1" viewBox="0 0 203.87 279.56"> <defs> <style>.cls-1{opacity:0.9;}.cls-2,.cls-3,.cls-4,.cls-5,.cls-6,.cls-7,.cls-8{stroke:#000;stroke-miterlimit:10;stroke-width:0.25px;}.cls-2{fill:url(#Безымянный_градиент_17);}.cls-3{fill:url(#Безымянный_градиент_17-2);}.cls-4{fill:url(#Безымянный_градиент_17-3);}.cls-5{fill:url(#Безымянный_градиент_17-4);}.cls-6{fill:url(#Безымянный_градиент_17-5);}.cls-7{fill:url(#Безымянный_градиент_17-6);}.cls-8{fill:url(#Безымянный_градиент_17-7);}.cls-9{font-size:36px;font-family:BebasNeueBook, Bebas Neue;}.cls-10{opacity:0.05;fill:url(#Безымянный_градиент_16);}</style> <linearGradient id="Безымянный_градиент_17" x1="228.88" y1="121.73" x2="229.15" y2="121.73" gradientUnits="userSpaceOnUse"> <stop offset="0"></stop> <stop offset="1"></stop> </linearGradient> <linearGradient id="Безымянный_градиент_17-2" x1="228.88" y1="128.74" x2="229.15" y2="128.74" xlink:href="#Безымянный_градиент_17"></linearGradient> <linearGradient id="Безымянный_градиент_17-3" x1="228.88" y1="140.05" x2="229.15" y2="140.05" xlink:href="#Безымянный_градиент_17"></linearGradient> <linearGradient id="Безымянный_градиент_17-4" x1="228.88" y1="172.59" x2="229.15" y2="172.59" xlink:href="#Безымянный_градиент_17"></linearGradient> <linearGradient id="Безымянный_градиент_17-5" x1="228.88" y1="172.73" x2="229.15" y2="172.73" xlink:href="#Безымянный_градиент_17"></linearGradient> <linearGradient id="Безымянный_градиент_17-6" x1="228.88" y1="174.23" x2="229.15" y2="174.23" xlink:href="#Безымянный_градиент_17"></linearGradient> <linearGradient id="Безымянный_градиент_17-7" x1="228.88" y1="255.78" x2="229.15" y2="255.78" xlink:href="#Безымянный_градиент_17"></linearGradient> <linearGradient id="Безымянный_градиент_16" x1="105.39" y1="8.55" x2="210.96" y2="8.55" xlink:href="#Безымянный_градиент_17"></linearGradient> </defs> <title>logo3</title> <g class="cls-1"> <path class="cls-2" d="M98.63,63.23c-5.7,2.9-10.1,8.3-10.9,13.7-.5,3.1-1.2,3.7-6.8,6.1-16.9,7.5-32.4,25.2-36.6,42-1.1,4-1.6,4.5-5.3,5.7-12.3,3.6-23.5,13.2-28.8,24.5-3.3,7-5.2,17.7-4.3,23.5.6,3.9,4.8,4,4.8,4h4.6v-8.8c0-7.4.5-9.6,2.88-14.8,4.68-10.4,15.82-19.3,26.26-21,5.07-.8,5.87-1.7,7.66-9,3.88-15.2,15.22-29.5,29-36.7l7.16-3.8,1.5,2.8c6.66,12.9,26.06,14.2,34.21,2.3,1.49-2.2,3.28-3.9,4.08-4,3.08-.1,14,7,20,13,7.06,7.1,12.93,17.2,14.92,25.5,1.79,7.4,3.18,9.1,8,9.9,10.54,1.7,21.68,10.6,26.65,21.4,2.29,4.8,2.69,7.1,2.69,14.4v8.8h9v-7.9c0-20.9-12.7-38.2-32.6-44.1-3.9-1.2-4.2-1.5-6.2-7.9a66.19,66.19,0,0,0-35.2-39.3c-6.2-2.9-6.8-3.4-7.8-7.4-2.3-8.4-11.1-15.3-19.8-15.4A25.54,25.54,0,0,0,98.63,63.23Zm16.3,8.2c2.6,1.7,5.4,7.1,5.4,10.6,0,3.1-3.8,8.8-7,10.4-9.3,4.7-20.1-4.1-17.6-14.3.8-3.2,5.8-8.1,8.9-8.7A15.91,15.91,0,0,1,114.93,71.43Z" transform="translate(-5.58 -7.43)"></path> <path class="cls-3" d="M83.63,115.93c-4.2,4.6-11.3,17.5-11.3,20.7,0,4.2,3.1,7.1,7.4,7.1,4,0,5.5-1.7,12.6-13.7,3.4-5.9,4.1-7.8,3.5-10.3C94.53,113.93,87.53,111.73,83.63,115.93Z" transform="translate(-5.58 -7.43)"></path> <path class="cls-4" d="M127.33,130.73c-2.5,2.5-2.6,8.1-.2,10.3a79.16,79.16,0,0,0,11.4,6.2c9,4.4,9.8,4.6,12.5,3.3a10.26,10.26,0,0,0,4.2-4.3c2.2-4.6,0-7.2-10.4-12.7C134.93,128.33,130.43,127.63,127.33,130.73Z" transform="translate(-5.58 -7.43)"></path> <path class="cls-5" d="M37.43,162.93a7.5,7.5,0,0,0-4.5,10.2c.3.8,2.9,3.3,5.8,5.5,5.2,4.1,5.4,4.1,13.9,4.1,7.9,0,8.7-.2,8.7-1.9,0-3.7-1.3-5.2-9.1-11.2C43.13,162.73,40.73,161.63,37.43,162.93Z" transform="translate(-5.58 -7.43)"></path> <path class="cls-6" d="M104.93,167.73c-9.8,7-11.6,8.9-11.6,12.2v2.8h17.5l5.8-4.5c4.9-3.9,5.7-5,5.7-7.8a7.75,7.75,0,0,0-7.6-7.7C112.93,162.83,109.33,164.63,104.93,167.73Z" transform="translate(-5.58 -7.43)"></path> <path class="cls-7" d="M162.63,170.43c-10.3,7.1-10.9,7.6-12.2,10l-1.2,2.3h11.5c11.2,0,11.7-.1,14.5-2.8,4.6-4.1,5-7.5,1.3-11.2-1.7-1.6-3.9-3-5-3S166.53,167.83,162.63,170.43Z" transform="translate(-5.58 -7.43)"></path> <path class="cls-8" d="M35.93,225.53c-.3.5,1.1,13.9,3,29.8,2.8,22.6,3.9,29.2,5.1,30.2,2.4,1.8,125.2,1.8,127.5-.1,1.3-.9,2.3-7,4.8-28.2,1.7-14.9,3.2-28.1,3.3-29.5.2-2.2-.3-2.5-3.2-2.8-1.8-.2-3.7,0-4.1.5s-2,10.9-3.4,23.3-2.9,24.2-3.2,26.2l-.6,3.8h-15.8v-2.8c0-1.5.7-11.7,1.49-22.7s1.5-21.9,1.5-24.3c0-4.1-.1-4.2-3.39-4.2-1.89,0-3.68.4-4.08.9s-1.2,11.7-2.1,24.8-1.69,24.8-2,26.1c-.4,2.1-.89,2.2-8.36,2.2h-8.07l1-26.8v-26.7l-3.4-.3c-1.6-.2-3.3.1-3.8.6s-1.3,12.3-1.6,26.8l-.7,26.4h-16l-.8-26c-.4-14-1-26.1-1.2-26.8s-4.1-1.2-4.1-1.2H90l.6,27,.6,27.1-8.2-.3-8.2-.3L73,252.73c-1-14-2-26.1-2.2-26.8-.5-1.3-7.1-1.7-7.8-.5-.3.5.4,11.4,1.4,24.3s1.8,24.7,1.9,26.2v2.8H50.53l-.6-3.8c-.3-2-1.7-13.1-3.1-24.7-3.3-27.4-2.8-25.5-7-25.5C38,224.73,36.23,225.13,35.93,225.53Z" transform="translate(-5.58 -7.43)"></path> </g> <text class="cls-9" transform="translate(8.18 208.95)">ПРО КОНДИТЕРОВ</text> <path class="cls-10" d="M109.5,7.43l-4.11,2.23h2l2.24-.29C109.58,8.73,109.53,8.08,109.5,7.43Z" transform="translate(-5.58 -7.43)"></path> </svg> 